:SAMPLES-PER-SECOND 30
:FULLY-SPECIFIED
:DEGREES
2028
root  5.80418 40.7965 0.634809 178.642 -68.1121 -179.634
RightUpLeg  -11.5925 -23.5894 -8.16192
RightLeg  9.00749 -16.785 1.84432
RightFoot  0.0896036 -0.292309 2.92357
RightToes  -4.65663e-010 0 -3.6325e-017
Spine  8.25325 -1.5668 -7.30975
Spine1  2.13747 -2.79541 3.79352
HEad  2.81102 -7.86516 7.21008
LeftShoulder1  7.85573 -11.1897 -46.6335
LeftArm  -6.20985 16.6203 -25.2636
LeftForeArm  24.8894 -11.7355 -5.97196
LeftHand  -0.244104 0.0205437 5.32207
RightShoulder  6.03861 9.67084 39.7128
RightArm  3.24949 -14.5696 32.6269
RightForeArm  0.928298 22.5289 4.8971
RightHand  -1.21224 2.6137 -17.6839
LeftUpLeg  1.17273 7.39388 2.65815
LeftLeg  2.04545 29.8652 -5.35624
LeftFoot  -3.24273 0.0292424 -0.0808008
LeftToes  4.18335e-011 1.59304e-011 3.38507e-012
2029
root  5.74183 40.8034 0.388576 179.38 -65.1479 179.603
RightUpLeg  -11.4813 -23.9713 -8.75129
RightLeg  7.48621 -25.5655 3.17678
RightFoot  0.203539 -0.157203 1.57179
RightToes  -4.65663e-010 0 -3.6325e-017
Spine  8.29594 -1.52641 -7.28774
Spine1  2.07411 -2.69462 3.58622
HEad  3.20703 -10.8517 7.67446
LeftShoulder1  7.83332 -11.1657 -46.5748
LeftArm  -5.72376 16.8933 -25.3287
LeftForeArm  24.2543 -12.8374 -5.77664
LeftHand  -0.244104 0.0205437 5.32207
RightShoulder  6.03711 9.65754 39.746
RightArm  3.3707 -15.0152 32.1867
RightForeArm  0.962325 22.5646 4.89657
RightHand  -1.20638 2.6116 -17.6052
LeftUpLeg  1.95038 7.3581 2.68431
LeftLeg  1.28988 32.6519 -5.56956
LeftFoot  -2.95126 0.0750627 -0.75203
LeftToes  4.18335e-011 1.59304e-011 3.38507e-012
2030
root  5.65798 40.8167 0.0884415 179.965 -62.1717 178.833
RightUpLeg  -10.7365 -23.6897 -9.53284
RightLeg  5.47539 -36.3851 5.50392
RightFoot  0.0610171 0.0482913 -0.486967
RightToes  -4.65663e-010 0 -3.6325e-017
Spine  8.24939 -1.55002 -7.28493
Spine1  2.12239 -2.69849 3.51386
HEad  3.89392 -13.7913 7.99467
LeftShoulder1  7.85399 -11.1872 -46.6309
LeftArm  -4.81123 17.3332 -25.0898
LeftForeArm  23.4719 -14.2925 -5.49722
LeftHand  -0.244104 0.0205437 5.32207
RightShoulder  6.01331 9.6083 39.7371
RightArm  3.43692 -15.6144 31.923
RightForeArm  0.470033 22.6238 4.92379
RightHand  -1.19234 2.45432 -17.7409
LeftUpLeg  3.11958 7.39266 2.73245
LeftLeg  0.130686 35.5088 -6.18696
LeftFoot  -2.59536 0.0993499 -1.10014
LeftToes  4.18335e-011 1.59304e-011 3.38507e-012
2031
root  5.55603 40.81 -0.274646 -179.497 -59.0898 177.996
RightUpLeg  -9.79965 -23.4447 -10.1004
RightLeg  3.18985 -46.1263 8.39306
RightFoot  -0.853958 0.267866 -3.0004
RightToes  -4.65663e-010 0 -3.6325e-017
Spine  8.07166 -1.59398 -7.35643
Spine1  2.24856 -2.75574 3.53729
HEad  4.84867 -16.5634 8.05624
LeftShoulder1  7.86502 -11.1803 -46.7203
LeftArm  -3.97061 17.7483 -24.7782
LeftForeArm  22.7519 -15.6087 -5.19673
LeftHand  -0.244104 0.0205437 5.32207
RightShoulder  5.97686 9.55477 39.6506
RightArm  3.5123 -16.264 31.7797
RightForeArm  -0.250898 22.5916 4.96073
RightHand  -1.18228 2.31517 -17.8998
LeftUpLeg  4.40032 7.4338 2.71305
LeftLeg  -0.910574 38.436 -6.83572
LeftFoot  -2.313 0.111747 -1.23791
LeftToes  4.18335e-011 1.59304e-011 3.38507e-012
2032
root  5.42866 40.7594 -0.71047 -178.894 -55.672 176.9
RightUpLeg  -8.85641 -22.7689 -10.4528
RightLeg  1.14665 -52.8714 10.7257
RightFoot  -2.4093 0.362865 -4.83499
RightToes  -4.65663e-010 0 -3.6325e-017
Spine  7.75043 -1.59328 -7.49904
Spine1  2.41385 -2.74052 3.41249
HEad  5.97894 -18.8843 7.77548
LeftShoulder1  7.82871 -11.1157 -46.7093
LeftArm  -3.51368 18.1711 -24.5486
LeftForeArm  22.0516 -16.5625 -4.95084
LeftHand  -0.244104 0.0205437 5.32207
RightShoulder  5.94761 9.52372 39.5409
RightArm  3.57693 -16.8883 31.7194
RightForeArm  -0.508784 22.3291 4.97301
RightHand  -1.16811 2.24855 -17.8389
LeftUpLeg  5.77613 7.50494 2.54653
LeftLeg  -1.43573 41.3936 -7.31232
LeftFoot  -2.2573 0.180568 -2.10476
LeftToes  4.18335e-011 1.59304e-011 3.38507e-012
2033
root  5.27584 40.68 -1.23468 -178.47 -52.0167 175.753
RightUpLeg  -7.61264 -20.1398 -10.8564
RightLeg  -1.32167 -57.8468 12.8733
RightFoot  -3.23416 0.374582 -5.57889
RightToes  -4.65663e-010 0 -3.6325e-017
Spine  7.25618 -1.57271 -7.56875
Spine1  2.72063 -2.68076 3.20706
HEad  7.21214 -20.7088 7.16361
LeftShoulder1  7.76749 -11.0308 -46.6117
LeftArm  -3.37672 18.6303 -24.3031
LeftForeArm  21.4288 -17.1114 -4.80222
LeftHand  -0.244104 0.0205437 5.32207
RightShoulder  5.91826 9.4797 39.4731
RightArm  3.64301 -17.4997 31.7064
RightForeArm  -0.344984 21.8772 4.98176
RightHand  -1.14771 2.16997 -17.7108
LeftUpLeg  7.41074 7.83767 2.47788
LeftLeg  -1.59553 44.2665 -7.90234
LeftFoot  -2.43039 0.288324 -3.51408
LeftToes  4.18335e-011 1.59304e-011 3.38507e-012
2034
root  5.11648 40.6109 -1.85281 -178.541 -48.3266 175.161
RightUpLeg  -6.38721 -16.9055 -10.7366
RightLeg  -4.12625 -60.778 14.9848
RightFoot  -2.42567 0.467441 -6.17793
RightToes  -4.65663e-010 0 -3.6325e-017
Spine  6.48392 -1.61062 -7.09669
Spine1  3.271 -2.65138 3.02773
HEad  8.42854 -22.1914 6.38312
LeftShoulder1  7.71202 -10.9435 -46.5565
LeftArm  -3.54182 19.0375 -23.9553
LeftForeArm  21.184 -17.2609 -4.73884
LeftHand  -0.244104 0.0205437 5.32207
RightShoulder  5.88861 9.39966 39.5235
RightArm  3.73656 -18.0145 31.6171
RightForeArm  -0.304591 21.1932 5.05422
RightHand  -1.14971 2.15239 -17.7799
LeftUpLeg  9.0655 8.59186 2.95864
LeftLeg  -1.28554 46.9205 -8.46833
LeftFoot  -2.67604 0.342009 -4.30103
LeftToes  4.18335e-011 1.59304e-011 3.38507e-012
2035
root  4.98019 40.5759 -2.54322 -179.16 -44.3082 175.477
RightUpLeg  -6.01172 -15.1092 -9.47562
RightLeg  -4.4362 -60.0911 14.7761
RightFoot  -0.975153 0.662298 -7.35598
RightToes  -4.65663e-010 0 -3.6325e-017
Spine  5.54499 -1.64663 -5.58764
Spine1  3.87608 -2.52242 2.62594
HEad  9.47737 -23.2511 5.61429
LeftShoulder1  7.65144 -10.8176 -46.5967
LeftArm  -4.19059 19.4593 -23.656
LeftForeArm  21.3174 -17.197 -4.67815
LeftHand  -0.244104 0.0205437 5.32207
RightShoulder  5.90956 9.37242 39.7694
RightArm  3.50393 -18.207 31.3359
RightForeArm  -0.189281 19.961 5.28915
RightHand  -1.17018 2.22702 -17.9192
LeftUpLeg  10.3773 9.64852 4.28687
LeftLeg  0.263591 49.2878 -8.26247
LeftFoot  -2.79625 0.406238 -5.22362
LeftToes  4.18335e-011 1.59304e-011 3.38507e-012
